<svg xmlns="http://www.w3.org/2000/svg" viewBox="0 0 756.89 485.9"><defs><style>.cls-1{fill:#5e5f5f;}.cls-1,.cls-2,.cls-3,.cls-5,.cls-6,.cls-7,.cls-8{stroke:#231f20;stroke-miterlimit:10;}.cls-1,.cls-2,.cls-3{stroke-width:3px;}.cls-2{fill:#662d91;}.cls-3,.cls-5{fill:#fff;}.cls-4,.cls-8{fill:#231f20;}.cls-5,.cls-8{stroke-width:2px;}.cls-6{fill:#686868;stroke-width:4px;}.cls-7{fill:none;}</style></defs><title>Pit pres Logo</title><g id="Body"><path class="cls-1" d="M685.4,159.39s-26.56,42.17-117.25,59.08c0,0-19-70.65-105.56,19.94l-29.73-15.69,44.65-43.18L460,165.23s57.4-50.14,94.59-22.19C554.6,143,631.78,178.69,685.4,159.39Z" transform="translate(-9.37 -75.64)"/><path class="cls-1" d="M731,380S641.61,212.77,568.15,218.47c0,0-21-70.65-105.56,19.94L263.83,486.61S341.4,482.38,358,493L463.79,288.13l56.87-40.94S646.38,288.84,731,380Z" transform="translate(-9.37 -75.64)"/><path class="cls-1" d="M763.37,446.76s-123.54-120.85-274.31-129L429.71,460.13,358,493,463.79,288.13l56.87-40.94S727.92,316.59,763.37,446.76Z" transform="translate(-9.37 -75.64)"/><path class="cls-1" d="M127,249.49S282.1,298.11,200.27,415l45.36-24.38s39.5-107.28-46.07-138.95Z" transform="translate(-9.37 -75.64)"/><path class="cls-2" d="M245.63,390.63s107.46-61.95,132.74-127.11c0,0,5.65-49.07,81.64-98.29l17.5,14.31-44.65,43.18,29.73,15.69L263.83,486.61l-84.16,20.48,11.21-45.34,40.45-11.7s2-57.62-4.82-49.14Z" transform="translate(-9.37 -75.64)"/><path class="cls-2" d="M91.34,520.61l64.27,7.74,24.06-21.26,11.21-45.34,40.45-11.7s2.59-50.31-4.82-49.14l-53.7,29-11.39,22.55L54.5,452.11l32.79,45.42Z" transform="translate(-9.37 -75.64)"/><path class="cls-2" d="M97.38,555.27s-10.7-33.06-6-34.66l-4-23.08L54.5,452.11S50.71,478.38,75.63,531Z" transform="translate(-9.37 -75.64)"/><path class="cls-1" d="M30.13,271.32l29.65-19s46.6-7.22,67.26-2.83l72.52,2.19,104.65-78S346.44,118,379.9,106.07c0,0-79.91-24.7-112.89-8.84l-35.07,60.1s-142.55,11.09-217.49,72Z" transform="translate(-9.37 -75.64)"/><path class="cls-2" d="M379.9,106.07s53.55-17,82.21-11.37c0,0,42.14,26.37,37.89,46.34,0,0-39.32,16.21-71.91,48.12L406.48,151.9l8-15.31Z" transform="translate(-9.37 -75.64)"/><path class="cls-1" d="M262,104s-54-4.16-60.31,13.61c0,0-4.08,10.7-10.5,45.52l40.75-5.8Z" transform="translate(-9.37 -75.64)"/><path class="cls-2" d="M69.4,164.7l31.68,20.48s36.59-13.13,43.76-13.16c0,0-13.36-26.77-35.2-26.18Z" transform="translate(-9.37 -75.64)"/><path class="cls-3" d="M86.14,313.78S60.72,274.66,73.84,251l-14.06,1.33L39,265S38.9,288.06,86.14,313.78Z" transform="translate(-9.37 -75.64)"/><path class="cls-3" d="M69.38,395.43s12.22,56.2,40,57L72,452.73S57.75,414.31,69.38,395.43Z" transform="translate(-9.37 -75.64)"/><path class="cls-2" d="M194.58,145.83H109.64s14-4.79,35.2,26.18c0,0,48.54-14.76,46.35-8.89Z" transform="translate(-9.37 -75.64)"/><path class="cls-4" d="M14.45,230.35l-.35-17.87L65.57,184.8l14.59,5.95S23.89,217.7,14.45,230.35Z" transform="translate(-9.37 -75.64)"/><path class="cls-2" d="M69.4,164.7l31.68,20.48-20.92,4.57L65.57,183.8,14.1,211.48S-9.2,176.4,69.4,164.7Z" transform="translate(-9.37 -75.64)"/><path class="cls-5" d="M80.16,426.12s31.27,33.23,58.05,11.05c0,0,8.4,18.64,34.6-7.27l-11.39,22.55h-52S89.61,451.61,80.16,426.12Z" transform="translate(-9.37 -75.64)"/><path class="cls-1" d="M379.9,106.07l34.59,30.52-8,15.31,14.16,24.41S372.73,255,378.37,263.52s-59.91,87.84-132.74,127.11c0,0,40.5-113.28-46.07-138.95l104.65-78s59-62.94,75.69-67.58" transform="translate(-9.37 -75.64)"/></g><g id="Gears"><path class="cls-6" d="M527.09,454.63c-3.88-.31-7.18-.54-10.47-.86a3.17,3.17,0,0,0-3.43,1.8c-3.05,4.9-6.29,9.69-9.56,14.45a2.57,2.57,0,0,0-.26,3c1.89,3.64,3.64,7.34,5.54,11a2,2,0,0,1-.44,2.71q-3.6,3.44-7,7a2.06,2.06,0,0,1-2.89.43c-3.56-1.89-7.2-3.63-10.78-5.49a2.53,2.53,0,0,0-3,.22q-6.9,4.75-13.94,9.28c-1.36.87-1.93,1.62-1.71,3.4.52,4.11.66,8.27.84,12.42a2,2,0,0,1-1,1.39c-3.41,1.45-6.83,2.87-10.31,4.13a2.47,2.47,0,0,1-2-.77q-4.08-4.59-8-9.36a2.6,2.6,0,0,0-3-.94c-4.61,1-9.26,1.88-13.91,2.71a3.36,3.36,0,0,0-3.1,2.62c-1.2,4.18-2.72,8.27-4,12.42a2.09,2.09,0,0,1-2.35,1.75c-3.25-.09-6.51-.08-9.76,0a2,2,0,0,1-2.24-1.62c-1.33-4.21-2.88-8.35-4.11-12.59-.51-1.77-1.54-2.29-3.13-2.57-4.46-.78-8.93-1.56-13.35-2.54a3,3,0,0,0-3.36,1.11c-2.85,3.46-5.81,6.84-8.66,10.3a1.8,1.8,0,0,1-2.48.63c-3.1-1.34-6.24-2.59-9.4-3.79a2.06,2.06,0,0,1-1.51-2.36c.33-4.66.65-9.32.83-14a2.88,2.88,0,0,0-1-2.16q-7.12-4.94-14.42-9.62a2.94,2.94,0,0,0-2.43-.08c-3.71,1.73-7.37,3.59-11,5.48a2.05,2.05,0,0,1-2.89-.39q-3.4-3.61-7-7a2,2,0,0,1-.38-2.87c1.86-3.5,3.57-7.08,5.41-10.59a2.85,2.85,0,0,0-.29-3.37q-4.77-6.88-9.26-14a2.83,2.83,0,0,0-3.27-1.57c-3.2.43-6.47.46-9.71.57-4.38.15-4.38.11-6-4-.85-2.11-1.59-4.27-2.59-6.31-.69-1.41-.3-2.16.83-3.08,3.27-2.66,6.42-5.49,9.68-8.18a2.41,2.41,0,0,0,.85-2.71c-.95-4.77-1.76-9.56-2.79-14.3a3.4,3.4,0,0,0-1.81-2.14c-4.14-1.51-8.35-2.86-12.56-4.17a2.29,2.29,0,0,1-1.95-2.6c.12-3.18.12-6.38,0-9.56a2.3,2.3,0,0,1,2-2.61c4.15-1.29,8.25-2.74,12.4-4a2.74,2.74,0,0,0,2.06-2.47c.85-4.78,1.72-9.56,2.77-14.3a2.7,2.7,0,0,0-1-3.18c-3.37-2.75-6.63-5.65-10-8.44a1.69,1.69,0,0,1-.68-2.29q2-4.75,3.88-9.57a2.08,2.08,0,0,1,2.38-1.5c4.46.3,8.93.49,13.39.84a2.21,2.21,0,0,0,2.3-1.29c3.06-4.67,6.23-9.27,9.23-14a3.37,3.37,0,0,0,.17-2.76c-1.71-3.72-3.58-7.36-5.49-11a2,2,0,0,1,.44-2.71c2.4-2.3,4.76-4.63,7-7a2,2,0,0,1,2.87-.41c3.56,1.87,7.2,3.6,10.77,5.45a2.68,2.68,0,0,0,3.17-.32c4.59-3.18,9.23-6.3,14-9.26a3.18,3.18,0,0,0,1.67-3.49c-.35-4.07-.59-8.15-.77-12.23a1.83,1.83,0,0,1,.93-1.39c3.35-1.42,6.72-2.8,10.14-4a2.38,2.38,0,0,1,2.08.63c2.78,3.1,5.45,6.29,8.12,9.49a2.32,2.32,0,0,0,2.66.91c4.93-1.07,9.9-2,14.87-2.87,1.57-.28,2.66-.73,3.15-2.54.93-3.44,2.26-6.77,3.31-10.18a2.08,2.08,0,0,1,2.37-1.72c3.25.09,6.5.07,9.75,0a1.88,1.88,0,0,1,2.11,1.53c1.12,3.6,2.38,7.15,3.5,10.75a2.6,2.6,0,0,0,2.27,2c5.47,1,10.92,2.19,16.4,3.13a3.26,3.26,0,0,0,2.38-1.15c2.36-2.6,4.62-5.29,6.82-8,.77-.95,1.41-1.29,2.62-.76,3.09,1.35,6.24,2.59,9.39,3.81a1.94,1.94,0,0,1,1.45,2.2c-.25,3.16-.33,6.35-.71,9.5a3.94,3.94,0,0,0,2.22,4.53c4.74,2.81,9.28,6,13.8,9.13a2.81,2.81,0,0,0,3.36.31c3.56-1.87,7.2-3.62,10.75-5.51a1.91,1.91,0,0,1,2.7.41c2.34,2.45,4.73,4.83,7.17,7.17a1.85,1.85,0,0,1,.39,2.56c-1.88,3.64-3.65,7.34-5.54,11a2.67,2.67,0,0,0,.29,3.17q4.77,6.89,9.25,14a3.06,3.06,0,0,0,3.3,1.67c3.93-.36,7.89-.56,11.83-.72a1.82,1.82,0,0,1,1.39.92c1.46,3.41,2.87,6.83,4.15,10.3a2.26,2.26,0,0,1-.7,1.89c-3,2.64-6,5.13-9,7.78a2.94,2.94,0,0,0-.95,2.23c1,5.48,2.18,10.92,3.16,16.4a2.36,2.36,0,0,0,1.89,2.1c3.52,1.14,7,2.36,10.55,3.45a2.08,2.08,0,0,1,1.74,2.36c-.08,3.31-.09,6.63,0,9.95a2.1,2.1,0,0,1-1.76,2.35c-3.53,1.12-7,2.34-10.55,3.45a2.34,2.34,0,0,0-1.88,2.09c-1,5.36-2.09,10.69-3,16a2.53,2.53,0,0,0,.8,1.92q4.44,4,9,7.74a1.83,1.83,0,0,1,.59,2.51c-1.17,2.74-2.34,5.5-3.34,8.31C529.52,453.92,528.66,455.1,527.09,454.63Z" transform="translate(-9.37 -75.64)"/><path class="cls-2" d="M363.47,281.75c-2.76-.22-5.11-.38-7.45-.61a2.26,2.26,0,0,0-2.44,1.28c-2.18,3.49-4.48,6.9-6.81,10.29a1.81,1.81,0,0,0-.18,2.14c1.34,2.59,2.59,5.22,3.94,7.81a1.37,1.37,0,0,1-.31,1.92c-1.71,1.64-3.39,3.3-5,5a1.46,1.46,0,0,1-2,.3c-2.54-1.34-5.13-2.58-7.67-3.91a1.81,1.81,0,0,0-2.14.16q-4.91,3.39-9.93,6.6a2.13,2.13,0,0,0-1.21,2.43c.37,2.92.46,5.88.59,8.83a1.34,1.34,0,0,1-.74,1c-2.42,1-4.86,2-7.33,2.94a1.73,1.73,0,0,1-1.45-.55c-1.93-2.17-3.83-4.39-5.67-6.65a1.86,1.86,0,0,0-2.15-.68c-3.29.71-6.59,1.34-9.9,1.94a2.38,2.38,0,0,0-2.21,1.86c-.85,3-1.93,5.88-2.86,8.84a1.47,1.47,0,0,1-1.67,1.24c-2.31-.06-4.63-.05-6.94,0a1.41,1.41,0,0,1-1.6-1.15c-.95-3-2-6-2.92-9a2.35,2.35,0,0,0-2.23-1.82c-3.18-.56-6.36-1.12-9.51-1.82a2.1,2.1,0,0,0-2.39.8c-2,2.46-4.13,4.86-6.16,7.33a1.29,1.29,0,0,1-1.77.45c-2.21-1-4.44-1.84-6.69-2.7a1.47,1.47,0,0,1-1.07-1.68c.23-3.32.46-6.63.59-9.95a2.05,2.05,0,0,0-.74-1.54q-5.07-3.51-10.26-6.85a2.15,2.15,0,0,0-1.74-.06c-2.64,1.24-5.24,2.56-7.83,3.91a1.45,1.45,0,0,1-2.05-.28q-2.43-2.58-5-5a1.44,1.44,0,0,1-.27-2c1.33-2.49,2.55-5,3.86-7.54a2,2,0,0,0-.21-2.39q-3.4-4.9-6.59-9.94a2,2,0,0,0-2.33-1.12c-2.28.3-4.6.32-6.91.4-3.12.11-3.12.09-4.29-2.83-.6-1.5-1.13-3-1.84-4.49-.49-1-.22-1.54.59-2.2,2.33-1.9,4.57-3.91,6.89-5.82a1.71,1.71,0,0,0,.6-1.93c-.67-3.39-1.25-6.8-2-10.18a2.42,2.42,0,0,0-1.29-1.52c-2.95-1.08-5.94-2-8.94-3a1.63,1.63,0,0,1-1.39-1.85q.14-3.41,0-6.81a1.63,1.63,0,0,1,1.4-1.85c2.95-.92,5.87-2,8.83-2.87a2,2,0,0,0,1.46-1.76c.61-3.4,1.22-6.81,2-10.18a1.91,1.91,0,0,0-.69-2.26c-2.4-2-4.72-4-7.1-6-.58-.48-.81-.89-.49-1.63q1.44-3.39,2.76-6.81a1.48,1.48,0,0,1,1.7-1.07c3.17.21,6.36.34,9.53.6a1.56,1.56,0,0,0,1.63-.92c2.18-3.33,4.44-6.6,6.57-10a2.38,2.38,0,0,0,.13-2c-1.22-2.64-2.55-5.24-3.91-7.81a1.39,1.39,0,0,1,.32-1.93c1.7-1.64,3.38-3.3,5-5a1.46,1.46,0,0,1,2.05-.3c2.53,1.34,5.12,2.57,7.67,3.89a1.91,1.91,0,0,0,2.25-.23c3.27-2.27,6.57-4.49,9.94-6.59a2.29,2.29,0,0,0,1.19-2.49c-.26-2.9-.42-5.8-.56-8.71a1.33,1.33,0,0,1,.67-1c2.38-1,4.78-2,7.22-2.87a1.69,1.69,0,0,1,1.48.45c2,2.21,3.88,4.48,5.78,6.75a1.65,1.65,0,0,0,1.89.65c3.51-.76,7.05-1.41,10.59-2a2.32,2.32,0,0,0,2.24-1.81c.66-2.45,1.61-4.82,2.36-7.25a1.46,1.46,0,0,1,1.68-1.22c2.31.06,4.63.05,6.94,0a1.32,1.32,0,0,1,1.5,1.08c.8,2.56,1.7,5.09,2.49,7.65a1.84,1.84,0,0,0,1.62,1.43c3.89.73,7.77,1.56,11.67,2.24a2.34,2.34,0,0,0,1.7-.82c1.68-1.85,3.29-3.77,4.86-5.71a1.35,1.35,0,0,1,1.86-.55c2.2,1,4.44,1.85,6.68,2.72a1.37,1.37,0,0,1,1,1.56c-.18,2.26-.23,4.52-.5,6.76a2.8,2.8,0,0,0,1.58,3.23c3.38,2,6.6,4.25,9.82,6.5a2,2,0,0,0,2.39.22c2.54-1.33,5.13-2.58,7.66-3.92a1.35,1.35,0,0,1,1.92.29c1.66,1.74,3.37,3.44,5.1,5.11a1.31,1.31,0,0,1,.28,1.82c-1.34,2.59-2.6,5.22-3.94,7.81a1.89,1.89,0,0,0,.2,2.25c2.26,3.27,4.47,6.58,6.59,9.94a2.15,2.15,0,0,0,2.34,1.18c2.81-.25,5.62-.39,8.43-.51a1.3,1.3,0,0,1,1,.66c1,2.42,2,4.86,3,7.33a1.61,1.61,0,0,1-.5,1.35c-2.11,1.87-4.3,3.65-6.4,5.53a2.09,2.09,0,0,0-.68,1.59c.7,3.9,1.55,7.77,2.25,11.68a1.67,1.67,0,0,0,1.34,1.49c2.51.81,5,1.68,7.51,2.46a1.46,1.46,0,0,1,1.24,1.67c-.05,2.36-.06,4.73,0,7.09a1.49,1.49,0,0,1-1.26,1.67c-2.5.8-5,1.67-7.5,2.45a1.68,1.68,0,0,0-1.35,1.5c-.68,3.81-1.48,7.6-2.16,11.41a1.8,1.8,0,0,0,.56,1.37c2.11,1.88,4.25,3.71,6.44,5.51A1.3,1.3,0,0,1,368,274c-.83,2-1.66,3.92-2.37,5.92C365.2,281.25,364.59,282.09,363.47,281.75Z" transform="translate(-9.37 -75.64)"/><path class="cls-2" d="M564.12,200.1c0,.5-.08,1.05-.16,1.59a1.35,1.35,0,0,0,.53,1.37c1.12.88,2.17,1.84,3.28,2.74a.75.75,0,0,1,.24,1c-.44,1-.85,2-1.24,3a.69.69,0,0,1-.78.52c-1.55-.12-3.09-.23-4.64-.31a1.2,1.2,0,0,0-.79.29c-1.07,1-2.11,2.08-3.14,3.16a1.12,1.12,0,0,0-.29.73c.06,1.51.15,3,.26,4.51a.81.81,0,0,1-.61.93c-1,.37-2,.78-3,1.2a.7.7,0,0,1-1-.24c-.83-1-1.74-2-2.52-3a1.69,1.69,0,0,0-1.7-.65c-1.13.06-2.26,0-3.39,0a1.37,1.37,0,0,0-.89.35c-1,1.11-2,2.25-2.91,3.4a.83.83,0,0,1-1.15.31c-1-.47-2.06-.87-3.1-1.27-.34-.13-.43-.3-.39-.69.14-1.54.24-3.09.31-4.64a1.13,1.13,0,0,0-.32-.72q-1.68-1.69-3.42-3.34a1.09,1.09,0,0,0-.71-.29c-1.46.06-2.92.16-4.38.27a.75.75,0,0,1-.88-.57c-.39-1.05-.81-2.08-1.25-3.1a.65.65,0,0,1,.23-.89c1.1-.9,2.18-1.84,3.27-2.75a1,1,0,0,0,.33-.91c-.07-1.34-.1-2.7-.05-4a1.23,1.23,0,0,0-.5-1.11c-1.13-.94-2.24-1.9-3.37-2.84a.67.67,0,0,1-.22-.9c.46-1,.87-2.1,1.29-3.16a.62.62,0,0,1,.78-.46c1,.14,1.92.15,2.88.21a2.82,2.82,0,0,1,.65,0c1.18.4,1.87-.18,2.57-1.07a18.18,18.18,0,0,1,2.4-2.32,1.1,1.1,0,0,0,.4-1.07c-.15-1.57-.22-3.14-.33-4.71A.64.64,0,0,1,537,180c1-.4,2.08-.81,3.1-1.26a.75.75,0,0,1,1,.28c1,1.19,2,2.37,3,3.56a1,1,0,0,0,.89.38c1.43,0,2.87.06,4.3,0a1.42,1.42,0,0,0,1-.38c1-1.12,2-2.28,2.94-3.45a.68.68,0,0,1,.94-.24c1,.46,2.1.88,3.17,1.28a.56.56,0,0,1,.41.68c-.12,1.59-.19,3.19-.3,4.78a1.29,1.29,0,0,0,.5,1.12c.92.87,1.79,1.8,2.63,2.74a1.09,1.09,0,0,0,1,.48c1.61-.13,3.22-.26,4.83-.35a.81.81,0,0,1,.65.34c.51,1.14,1,2.3,1.41,3.47a.82.82,0,0,1-.24.69q-1.8,1.59-3.66,3.1a1.21,1.21,0,0,0-.5,1.25A15.83,15.83,0,0,1,564.12,200.1Z" transform="translate(-9.37 -75.64)"/><polygon class="cls-4" points="527.63 126.07 531.16 116.29 541.39 114.45 548.1 122.39 544.57 132.18 534.34 134.01 527.63 126.07"/><path class="cls-2" d="M472.48,403c-.17,1.67-.28,3.47-.53,5.26a4.44,4.44,0,0,0,1.75,4.54c3.68,2.93,7.19,6.09,10.83,9.07a2.47,2.47,0,0,1,.79,3.38c-1.45,3.31-2.8,6.67-4.1,10.05a2.26,2.26,0,0,1-2.58,1.74c-5.11-.39-10.23-.77-15.35-1a3.84,3.84,0,0,0-2.61,1c-3.54,3.4-7,6.9-10.39,10.45a3.68,3.68,0,0,0-1,2.43c.19,5,.49,10,.84,14.94a2.62,2.62,0,0,1-2,3c-3.33,1.23-6.61,2.58-9.86,4a2.32,2.32,0,0,1-3.17-.82c-2.75-3.37-5.74-6.55-8.34-10-1.55-2.07-3.31-2.29-5.62-2.16-3.74.22-7.49,0-11.24.11a4.47,4.47,0,0,0-2.94,1.17c-3.3,3.65-6.48,7.42-9.61,11.23-1.1,1.35-2.05,1.84-3.81,1-3.35-1.55-6.81-2.85-10.25-4.18-1.15-.44-1.43-1-1.31-2.28.47-5.11.8-10.23,1-15.36a3.64,3.64,0,0,0-1.08-2.39q-5.56-5.61-11.3-11.05a3.67,3.67,0,0,0-2.36-1c-4.83.21-9.66.53-14.49.89a2.48,2.48,0,0,1-2.92-1.89c-1.28-3.46-2.67-6.89-4.14-10.27a2.13,2.13,0,0,1,.78-2.93c3.65-3,7.19-6.09,10.82-9.1a3.13,3.13,0,0,0,1.09-3c-.24-4.46-.35-8.94-.16-13.4a4,4,0,0,0-1.67-3.66c-3.73-3.11-7.39-6.3-11.13-9.4a2.19,2.19,0,0,1-.74-3c1.51-3.45,2.89-7,4.27-10.46a2,2,0,0,1,2.58-1.51c3.14.44,6.34.49,9.52.68a9.1,9.1,0,0,1,2.16.05c3.91,1.31,6.17-.59,8.49-3.54a59.59,59.59,0,0,1,7.95-7.68,3.6,3.6,0,0,0,1.33-3.56c-.48-5.18-.72-10.38-1.11-15.57a2.13,2.13,0,0,1,1.65-2.41c3.44-1.34,6.88-2.71,10.25-4.2,1.49-.66,2.39-.23,3.34.92,3.28,4,6.66,7.85,9.94,11.81a3.19,3.19,0,0,0,2.94,1.24c4.75-.08,9.5.22,14.24.19a4.68,4.68,0,0,0,3.13-1.28c3.35-3.7,6.56-7.54,9.73-11.41a2.27,2.27,0,0,1,3.14-.79c3.44,1.51,7,2.9,10.46,4.24a1.84,1.84,0,0,1,1.38,2.25c-.39,5.26-.63,10.54-1,15.81a4.23,4.23,0,0,0,1.62,3.71c3.06,2.87,5.93,5.95,8.72,9.08a3.63,3.63,0,0,0,3.28,1.59c5.32-.44,10.65-.86,16-1.15a2.69,2.69,0,0,1,2.16,1.12c1.69,3.76,3.25,7.59,4.66,11.46a2.67,2.67,0,0,1-.8,2.29q-6,5.25-12.12,10.26a4,4,0,0,0-1.63,4.13C472.29,399.38,472.32,401.12,472.48,403Z" transform="translate(-9.37 -75.64)"/><polygon class="cls-4" points="389.06 330.23 395 313.71 412.29 310.6 423.62 324.02 417.67 340.54 400.39 343.64 389.06 330.23"/><path class="cls-6" d="M318.68,241.69c-.1,1-.17,2.08-.32,3.15a2.65,2.65,0,0,0,1.05,2.71c2.2,1.76,4.3,3.65,6.48,5.43a1.47,1.47,0,0,1,.47,2c-.87,2-1.67,4-2.45,6a1.36,1.36,0,0,1-1.54,1c-3.06-.24-6.12-.47-9.19-.62a2.4,2.4,0,0,0-1.56.57c-2.12,2-4.18,4.13-6.21,6.26a2.2,2.2,0,0,0-.58,1.45c.11,3,.29,6,.51,8.94a1.57,1.57,0,0,1-1.21,1.82c-2,.73-4,1.54-5.9,2.39a1.39,1.39,0,0,1-1.9-.49c-1.64-2-3.43-3.92-5-6A3.36,3.36,0,0,0,288,275.1c-2.24.13-4.48,0-6.72.06a2.67,2.67,0,0,0-1.76.7c-2,2.19-3.88,4.44-5.75,6.72a1.62,1.62,0,0,1-2.28.61c-2-.93-4.07-1.7-6.13-2.5-.69-.27-.85-.6-.78-1.36.28-3.06.47-6.12.61-9.19a2.19,2.19,0,0,0-.64-1.43q-3.33-3.36-6.77-6.61a2.14,2.14,0,0,0-1.4-.58c-2.9.13-5.79.32-8.67.54a1.5,1.5,0,0,1-1.75-1.13c-.76-2.07-1.6-4.12-2.48-6.15a1.28,1.28,0,0,1,.47-1.75c2.18-1.79,4.3-3.64,6.47-5.45a1.83,1.83,0,0,0,.65-1.79c-.14-2.67-.2-5.35-.09-8a2.42,2.42,0,0,0-1-2.19c-2.23-1.86-4.42-3.77-6.66-5.62a1.3,1.3,0,0,1-.44-1.78c.9-2.07,1.73-4.17,2.55-6.26A1.2,1.2,0,0,1,247,221c1.88.26,3.79.29,5.69.4a5.52,5.52,0,0,1,1.29,0c2.34.78,3.7-.35,5.08-2.12a35.07,35.07,0,0,1,4.76-4.59,2.16,2.16,0,0,0,.79-2.13c-.28-3.1-.43-6.21-.66-9.32a1.28,1.28,0,0,1,1-1.44c2.06-.79,4.11-1.62,6.13-2.51a1.48,1.48,0,0,1,2,.55c2,2.37,4,4.7,6,7.07a1.92,1.92,0,0,0,1.76.74c2.84,0,5.68.13,8.52.11a2.74,2.74,0,0,0,1.87-.76c2-2.22,3.92-4.52,5.82-6.83a1.37,1.37,0,0,1,1.88-.47c2.06.9,4.15,1.73,6.26,2.53a1.1,1.1,0,0,1,.82,1.35c-.23,3.15-.37,6.31-.59,9.46a2.54,2.54,0,0,0,1,2.22c1.82,1.72,3.54,3.56,5.21,5.43a2.19,2.19,0,0,0,2,.95c3.19-.26,6.37-.52,9.56-.69a1.61,1.61,0,0,1,1.29.67c1,2.25,1.95,4.54,2.79,6.86a1.59,1.59,0,0,1-.48,1.37q-3.56,3.14-7.24,6.14a2.37,2.37,0,0,0-1,2.47C318.57,239.53,318.59,240.57,318.68,241.69Z" transform="translate(-9.37 -75.64)"/><polygon class="cls-4" points="259.06 169.23 265 152.71 282.29 149.6 293.62 163.02 287.67 179.53 270.39 182.64 259.06 169.23"/></g><g id="Screws"><circle class="cls-7" cx="178.52" cy="188.64" r="5"/><circle class="cls-7" cx="223.52" cy="306.64" r="5"/><line class="cls-7" x1="173.52" y1="188.64" x2="183.52" y2="188.64"/><line class="cls-7" x1="218.52" y1="306.64" x2="228.52" y2="306.64"/><path class="cls-2" d="M226.6,165.51S379,48,424,84c0,0-35.19.13-44.1,22.07Z" transform="translate(-9.37 -75.64)"/><path class="cls-2" d="M382.44,249.49S428,132.1,518,93.55L500,141S415.88,175,382.44,249.49Z" transform="translate(-9.37 -75.64)"/><circle class="cls-8" cx="67.02" cy="397.09" r="1"/><circle class="cls-8" cx="62.82" cy="391.36" r="1"/><circle class="cls-8" cx="58.62" cy="386.63" r="1"/><circle class="cls-8" cx="54.52" cy="381.16" r="1"/><circle class="cls-8" cx="80.22" cy="414.55" r="1"/><circle class="cls-8" cx="76.02" cy="408.82" r="1"/><circle class="cls-8" cx="71.82" cy="403.09" r="1"/><circle class="cls-8" cx="182.19" cy="404.37" r="1"/><circle class="cls-8" cx="176.84" cy="425.59" r="1"/><circle class="cls-8" cx="178.68" cy="418.73" r="1"/><circle class="cls-8" cx="180.52" cy="411.87" r="1"/><circle class="cls-8" cx="184.36" cy="397.25" r="1"/><circle class="cls-8" cx="186.19" cy="390.38" r="1"/><circle class="cls-8" cx="217.2" cy="362.53" r="1"/><circle class="cls-8" cx="217.32" cy="370.27" r="1"/><circle class="cls-8" cx="217.04" cy="355.09" r="1"/><circle class="cls-8" cx="217.05" cy="340.22" r="1"/><circle class="cls-8" cx="217.18" cy="347.96" r="1"/><circle class="cls-8" cx="216.89" cy="332.77" r="1"/><circle class="cls-8" cx="279.35" cy="387.6" r="1"/><circle class="cls-8" cx="265.9" cy="404.86" r="1"/><circle class="cls-8" cx="270.35" cy="399.32" r="1"/><circle class="cls-8" cx="274.8" cy="393.78" r="1"/><circle class="cls-8" cx="284.2" cy="381.95" r="1"/><circle class="cls-8" cx="288.65" cy="376.41" r="1"/><circle class="cls-8" cx="476.03" cy="204.17" r="1"/><circle class="cls-8" cx="463.5" cy="212.42" r="1"/><circle class="cls-8" cx="470.14" cy="208.1" r="1"/><circle class="cls-8" cx="482.08" cy="199.83" r="1"/><circle class="cls-8" cx="487.72" cy="195.5" r="1"/><circle class="cls-8" cx="509.57" cy="179" r="1"/><circle class="cls-8" cx="493.81" cy="191.19" r="1"/><circle class="cls-8" cx="499" cy="187.34" r="1"/><circle class="cls-8" cx="504.18" cy="183.48" r="1"/><circle class="cls-8" cx="445.39" cy="153.18" r="1"/><circle class="cls-8" cx="431.73" cy="146.53" r="1"/><circle class="cls-8" cx="438.24" cy="149.39" r="1"/><circle class="cls-8" cx="452.11" cy="156.4" r="1"/><circle class="cls-8" cx="460.72" cy="104.19" r="1"/><circle class="cls-8" cx="450.25" cy="95.22" r="1"/><circle class="cls-8" cx="455.79" cy="99.66" r="1"/><circle class="cls-8" cx="386.79" cy="52.07" r="1"/><circle class="cls-8" cx="369.53" cy="36.6" r="1"/><circle class="cls-8" cx="375.07" cy="42.06" r="1"/><circle class="cls-8" cx="380.6" cy="46.51" r="1"/><circle class="cls-8" cx="392.43" cy="56.92" r="1"/><circle class="cls-8" cx="408.88" cy="85.96" r="1"/><circle class="cls-8" cx="404.38" cy="78.96" r="1"/><circle class="cls-8" cx="413.04" cy="92.13" r="1"/><circle class="cls-8" cx="397.63" cy="61.71" r="1"/><circle class="cls-8" cx="258.06" cy="295.12" r="1"/><circle class="cls-8" cx="245.54" cy="303.38" r="1"/><circle class="cls-8" cx="252.17" cy="299.05" r="1"/><circle class="cls-8" cx="264.12" cy="290.79" r="1"/><circle class="cls-8" cx="269.75" cy="286.46" r="1"/><circle class="cls-8" cx="291.6" cy="269.96" r="1"/><circle class="cls-8" cx="275.84" cy="282.15" r="1"/><circle class="cls-8" cx="281.03" cy="278.29" r="1"/><circle class="cls-8" cx="286.22" cy="274.44" r="1"/><circle class="cls-8" cx="297.88" cy="265.86" r="1"/><circle class="cls-8" cx="303.97" cy="260.54" r="1"/><circle class="cls-8" cx="309.16" cy="256.69" r="1"/><circle class="cls-8" cx="314.35" cy="252.83" r="1"/><circle class="cls-8" cx="249.71" cy="283.82" r="1"/><circle class="cls-8" cx="246.69" cy="297.52" r="1"/><circle class="cls-8" cx="248.32" cy="290.77" r="1"/><circle class="cls-8" cx="250.92" cy="276.47" r="1"/><circle class="cls-8" cx="251.85" cy="269.43" r="1"/><circle class="cls-8" cx="252.11" cy="262.07" r="1"/><circle class="cls-8" cx="251.1" cy="255.69" r="1"/><circle class="cls-8" cx="15.47" cy="164.81" r="1"/><circle class="cls-8" cx="12.67" cy="158.28" r="1"/><circle class="cls-8" cx="23.38" cy="184.8" r="1"/><circle class="cls-8" cx="20.58" cy="178.27" r="1"/><circle class="cls-8" cx="17.79" cy="171.74" r="1"/><circle class="cls-8" cx="228.74" cy="58.1" r="1"/><circle class="cls-8" cx="232.28" cy="51.46" r="1"/><circle class="cls-8" cx="219.51" cy="76.96" r="1"/><circle class="cls-8" cx="222.04" cy="71.32" r="1"/><circle class="cls-8" cx="225.58" cy="64.69" r="1"/><circle class="cls-8" cx="235.71" cy="45.42" r="1"/><circle class="cls-8" cx="239.04" cy="39.15" r="1"/><circle class="cls-8" cx="242.36" cy="32.87" r="1"/><circle class="cls-8" cx="178.04" cy="81.41" r="1"/><circle class="cls-8" cx="179.22" cy="75.23" r="1"/><circle class="cls-8" cx="77.93" cy="107.45" r="1"/><circle class="cls-8" cx="66.47" cy="99.48" r="1"/><circle class="cls-8" cx="72.01" cy="103.93" r="1"/><circle class="cls-8" cx="60.62" cy="95.22" r="1"/><circle class="cls-8" cx="127.84" cy="93.08" r="1"/><circle class="cls-8" cx="117.38" cy="83.1" r="1"/><circle class="cls-8" cx="122.92" cy="88.55" r="1"/><circle class="cls-8" cx="111.53" cy="78.84" r="1"/><circle class="cls-8" cx="105.74" cy="74.18" r="1"/></g></svg>